<?xml version="1.0" encoding="UTF-8"?><svg id="Layer_1" xmlns="http://www.w3.org/2000/svg" viewBox="0 0 510.49 79.98"><path d="M143.76,58.44c0,.28-.23.51-.51.51h-9.62c-.29,0-.51-.23-.51-.51l.23-19.24-.23-19.58c0-.28.23-.51.51-.51h9.62c.28,0,.51.23.51.51l-.23,19.58.23,19.24Z" style="fill:#fff;"/><path d="M159.63,22.82l-.06,6.83h6.43c.28,0,.51.23.51.51v6.09c0,.28-.23.51-.51.51h-6.43l.06,12.41c0,2.56,1.31,3.19,2.85,3.19s2.5-.28,3.42-.51c.34-.11.57.11.57.46v5.46c0,.28-.11.51-.4.63-1.94.68-4.04,1.2-6.09,1.2-5.58,0-10.59-2.79-10.59-9.9l.11-12.92h-3.36c-.29,0-.51-.23-.51-.51v-6.09c0-.28.23-.51.51-.51h3.3l-.06-6.83c0-.28.23-.51.51-.51h9.22c.28,0,.51.23.51.51Z" style="fill:#fff;"/><path d="M188.15,30.16c0-.34.11-.51.46-.51h9.33c.28,0,.51.23.51.51l-.17,14.23.17,14.06c0,.28-.23.51-.51.51h-9.11c-.34,0-.51-.17-.51-.51l.11-2.79c-2.05,2.45-4.95,3.87-8.65,3.87-8.31,0-12.75-6.6-12.75-15.14s5.12-15.31,13.2-15.31c3.42,0,6.09,1.19,8.03,3.41l-.11-2.33ZM188.49,44.44c.06-5.86-1.82-8.65-5.41-8.65-3.64-.06-5.63,2.62-5.63,8.37s2.05,8.76,5.52,8.71c3.47,0,5.46-2.68,5.52-8.42Z" style="fill:#fff;"/><path d="M211.45,58.44c0,.28-.23.51-.51.51h-9.05c-.29,0-.51-.23-.51-.51l.23-19.29-.23-19.52c0-.28.23-.51.51-.51h9.05c.28,0,.51.23.51.51l-.23,19.52.23,19.29Z" style="fill:#fff;"/><path d="M224.79,19.63v7.23c0,.28-.23.51-.51.51h-9.39c-.28,0-.51-.23-.51-.51v-7.23c0-.28.23-.51.51-.51h9.39c.28,0,.51.23.51.51ZM224.79,58.44c0,.28-.23.51-.51.51h-9.33c-.29,0-.51-.23-.51-.51l.17-13.89-.17-14.4c0-.28.23-.51.51-.51h9.33c.28,0,.51.23.51.51l-.17,14.4.17,13.89Z" style="fill:#fff;"/><path d="M247.76,30.16c0-.34.11-.51.46-.51h9.33c.28,0,.51.23.51.51l-.17,14.23.17,14.06c0,.28-.23.51-.51.51h-9.11c-.34,0-.51-.17-.51-.51l.11-2.79c-2.05,2.45-4.95,3.87-8.65,3.87-8.31,0-12.75-6.6-12.75-15.14s5.12-15.31,13.2-15.31c3.42,0,6.09,1.19,8.03,3.41l-.11-2.33ZM248.1,44.44c.06-5.86-1.82-8.65-5.41-8.65-3.64-.06-5.63,2.62-5.63,8.37s2.05,8.76,5.52,8.71c3.47,0,5.46-2.68,5.52-8.42Z" style="fill:#fff;"/><path d="M271.37,58.44c0,.28-.23.51-.51.51h-9.45c-.29,0-.51-.23-.51-.51l.17-13.94v-14.34c0-.28.23-.51.51-.51h8.82c.34,0,.51.17.51.51l-.17,3.02c1.99-2.79,5.46-4.21,9.28-4.21,6.54,0,10.42,4.38,10.42,11.1v6.43l.17,11.95c0,.28-.23.51-.51.51h-9.39c-.28,0-.51-.23-.51-.51l.17-11.95v-5.69c0-2.85-1.54-4.44-3.64-4.44-3.02,0-5.52,3.24-5.52,9.28v.85l.17,11.95Z" style="fill:#fff;"/><path d="M294.2,58.96c-.28,0-.51-.23-.51-.51l.28-19.12-.28-19.69c0-.28.23-.51.51-.51h18.16c8.25,0,14.4,2.79,14.4,9.96,0,4.72-2.33,7.29-6.6,8.76,5.24,1.14,7.91,4.67,7.91,9.39,0,8.25-7.74,11.72-15.37,11.72h-18.5ZM304.45,26.46l-.23,8.31h7.74c2.85,0,4.5-1.48,4.5-4.15s-1.88-4.15-4.5-4.15h-7.51ZM304.22,41.88l.23,9.73h7.51c3.36,0,5.41-1.25,5.41-5.01,0-3.47-2.11-4.72-5.41-4.72h-7.74Z" style="fill:#fff;"/><path d="M330.08,48.26v-6.2l-.17-11.9c0-.28.23-.51.51-.51h9.39c.28,0,.51.23.51.51l-.17,11.9v5.98c0,2.62,1.48,4.15,3.58,4.15,2.68,0,5.52-2.39,5.52-9.22v-.91l-.11-11.9c0-.28.23-.51.51-.51h9.45c.29,0,.51.23.51.51l-.17,13.89.06,14.4c0,.28-.23.51-.51.51h-8.88c-.34,0-.51-.17-.51-.51l.17-3.07c-2.11,2.9-5.46,4.27-9.28,4.27-6.54,0-10.42-4.44-10.42-11.38Z" style="fill:#fff;"/><path d="M372.91,19.63v7.23c0,.28-.23.51-.51.51h-9.39c-.28,0-.51-.23-.51-.51v-7.23c0-.28.23-.51.51-.51h9.39c.28,0,.51.23.51.51ZM372.91,58.44c0,.28-.23.51-.51.51h-9.33c-.29,0-.51-.23-.51-.51l.17-13.89-.17-14.4c0-.28.23-.51.51-.51h9.33c.28,0,.51.23.51.51l-.17,14.4.17,13.89Z" style="fill:#fff;"/><path d="M385.97,58.44c0,.28-.23.51-.51.51h-9.05c-.29,0-.51-.23-.51-.51l.23-19.29-.23-19.52c0-.28.23-.51.51-.51h9.05c.28,0,.51.23.51.51l-.23,19.52.23,19.29Z" style="fill:#fff;"/><path d="M419.22,19.63l-.11,20.15.17,18.67c0,.28-.23.51-.51.51h-9.16c-.34,0-.51-.17-.51-.51l.17-2.79c-2.05,2.45-4.95,3.87-8.65,3.87-8.31,0-12.75-6.6-12.75-15.14s5.12-15.31,13.2-15.31c3.36,0,6.03,1.14,7.97,3.3l-.06-12.75c0-.28.23-.51.51-.51h9.22c.29,0,.51.23.51.51ZM409.31,44.44c.06-5.86-1.82-8.65-5.41-8.71-3.64-.06-5.63,2.68-5.63,8.42s2.05,8.76,5.52,8.76,5.46-2.67,5.52-8.48Z" style="fill:#fff;"/><path d="M441.38,49.51c.11-.28.28-.46.57-.46h8.76c.34,0,.57.17.51.51-.85,5.07-5.92,10.19-14.51,10.19-9.79,0-15.59-6.32-15.59-15.37s6.03-15.54,15.25-15.54c9.9,0,15.42,6.09,15.59,17.07,0,.34-.23.51-.51.51h-20.15c.4,4.95,2.22,6.55,5.41,6.55,2.33,0,3.98-1.02,4.67-3.47ZM431.53,40.52h9.73c-.17-2.79-1.71-5.12-4.67-5.12-2.62,0-4.38,1.42-5.07,5.12Z" style="fill:#fff;"/><path d="M463.84,58.44c0,.28-.23.51-.51.51h-9.16c-.29,0-.51-.23-.51-.51l.23-14.06-.23-14.23c0-.28.23-.51.51-.51h9.11c.34,0,.51.17.51.51l-.23,4.21c2.33-3.3,5.86-4.95,9.9-4.95.34,0,.8.06,1.14.11.28.06.46.28.46.57v6.49c0,.34-.17.51-.51.51-.28-.06-.51-.06-.74-.06-6.09,0-10.19,3.53-9.96,10.3v11.1Z" style="fill:#fff;"/><path d="M475.36,49.74c0-.34.17-.51.51-.51h8.94c.28,0,.51.17.57.51.28,2.56,1.99,3.7,5.12,3.7,2.9,0,4.33-.91,4.33-2.67,0-4.67-18.72.06-18.72-12.07,0-6.2,5.18-9.79,13.15-9.79s13.26,3.24,14.11,9.33c.06.4-.17.57-.51.57h-8.48c-.28,0-.46-.17-.51-.46-.46-2.05-1.76-3.3-4.44-3.3-2.22,0-3.59.74-3.59,2.56,0,5.01,18.72-.17,18.72,12.18,0,6.2-5.8,9.9-14.06,9.9s-14.63-3.36-15.14-9.96Z" style="fill:#fff;"/><rect x="6.99" y="6.42" width="96.12" height="67.97" style="fill:#fff;"/><polygon points="71.07 6.42 71.07 29.08 39.03 29.08 39.03 51.73 6.99 51.73 6.99 6.42 71.07 6.42" style="fill:#1b8a45;"/><rect x="71.07" y="6.42" width="32.04" height="22.66" style="fill:#fff;"/><rect x="6.99" y="51.73" width="32.04" height="22.66" style="fill:#fff;"/><polygon points="103.11 29.08 103.11 74.39 39.03 74.39 39.03 51.73 71.07 51.73 71.07 29.08 103.11 29.08" style="fill:#b92c2c;"/></svg>